<?xml version="1.0" standalone="no"?>
<!DOCTYPE svg PUBLIC "-//W3C//DTD SVG 1.1//EN"
"http://www.w3.org/Graphics/SVG/1.1/DTD/svg11.dtd">
<!-- Creator: fig2dev Version 3.2 Patchlevel 5e -->
<!-- CreationDate: Mon Apr 16 22:35:43 2018 -->
<!-- Magnification: 1.000 -->
<svg	xmlns="http://www.w3.org/2000/svg"
	xmlns:xlink="http://www.w3.org/1999/xlink"
	width="9.5in" height="4.9in"
	viewBox="288 888 11424 5874">
<g style="stroke-width:.025in; fill:none">
<!-- Line: box -->
<rect x="4800" y="900" width="2400" height="1050" rx="105" 
style="stroke:#000000;stroke-width:7;
stroke-linejoin:miter; stroke-linecap:butt;
"/>
<!-- Line -->
<polyline points="6000,2070
6000,2280
" style="stroke:#000000;stroke-width:7;
stroke-linejoin:miter; stroke-linecap:butt;
"/>
<!-- Arrowhead on XXXpoint 6000 1950 - 6000 2415-->
<polygon points="5970 2279
6000 2399
6030 2279
5970 2279

" style="stroke:#000000;stroke-width:7;stroke-miterlimit:8;
fill:#000000;"/>
<!-- Arrowhead on XXXpoint 6000 2400 - 6000 1935-->
<polygon points="5940 1935
5940 1940
5941 1945
5942 1949
5943 1954
5945 1959
5947 1963
5949 1967
5952 1971
5955 1975
5958 1978
5962 1981
5966 1984
5970 1987
5974 1989
5979 1991
5983 1993
5988 1994
5993 1995
5998 1995
6002 1995
6007 1995
6012 1994
6017 1993
6021 1991
6026 1989
6030 1987
6034 1984
6038 1981
6042 1978
6045 1975
6048 1971
6051 1967
6053 1963
6055 1959
6057 1954
6058 1949
6059 1945
6060 1940
6060 1935

" style="stroke:#000000;stroke-width:7;stroke-miterlimit:8;
fill:#000000;"/>
<!-- Line: box -->
<rect x="4500" y="2400" width="3000" height="1050" rx="105" 
style="stroke:#000000;stroke-width:7;
stroke-linejoin:miter; stroke-linecap:butt;
"/>
<!-- Line -->
<polyline points="2820,1500
4680,1500
" style="stroke:#000000;stroke-width:7;
stroke-linejoin:miter; stroke-linecap:butt;
"/>
<!-- Arrowhead on XXXpoint 2700 1500 - 4815 1500-->
<polygon points="4679 1530
4799 1500
4679 1470
4679 1530

" style="stroke:#000000;stroke-width:7;stroke-miterlimit:8;
fill:#000000;"/>
<!-- Arrowhead on XXXpoint 4800 1500 - 2685 1500-->
<polygon points="2685 1560
2690 1560
2695 1559
2699 1558
2704 1557
2709 1555
2713 1553
2717 1551
2721 1548
2725 1545
2728 1542
2731 1538
2734 1534
2737 1530
2739 1526
2741 1521
2743 1517
2744 1512
2745 1507
2745 1502
2745 1498
2745 1493
2744 1488
2743 1483
2741 1479
2739 1474
2737 1470
2734 1466
2731 1462
2728 1458
2725 1455
2721 1452
2717 1449
2713 1447
2709 1445
2704 1443
2699 1442
2695 1441
2690 1440
2685 1440

" style="stroke:#000000;stroke-width:7;stroke-miterlimit:8;
fill:#000000;"/>
<!-- Line: box -->
<rect x="4500" y="3900" width="3000" height="1050" rx="105" 
style="stroke:#000000;stroke-width:7;
stroke-linejoin:miter; stroke-linecap:butt;
"/>
<!-- Line: box -->
<rect x="300" y="3900" width="3600" height="1050" rx="105" 
style="stroke:#000000;stroke-width:7;
stroke-linejoin:miter; stroke-linecap:butt;
"/>
<!-- Line -->
<polyline points="6000,5070
6000,5280
" style="stroke:#000000;stroke-width:7;
stroke-linejoin:miter; stroke-linecap:butt;
"/>
<!-- Arrowhead on XXXpoint 6000 4950 - 6000 5415-->
<polygon points="5970 5279
6000 5399
6030 5279
5970 5279

" style="stroke:#000000;stroke-width:7;stroke-miterlimit:8;
fill:#000000;"/>
<!-- Arrowhead on XXXpoint 6000 5400 - 6000 4935-->
<polygon points="5940 4935
5940 4940
5941 4945
5942 4949
5943 4954
5945 4959
5947 4963
5949 4967
5952 4971
5955 4975
5958 4978
5962 4981
5966 4984
5970 4987
5974 4989
5979 4991
5983 4993
5988 4994
5993 4995
5998 4995
6002 4995
6007 4995
6012 4994
6017 4993
6021 4991
6026 4989
6030 4987
6034 4984
6038 4981
6042 4978
6045 4975
6048 4971
6051 4967
6053 4963
6055 4959
6057 4954
6058 4949
6059 4945
6060 4940
6060 4935

" style="stroke:#000000;stroke-width:7;stroke-miterlimit:8;
fill:#000000;"/>
<!-- Line: box -->
<rect x="4500" y="5400" width="3000" height="450" rx="105" 
style="stroke:#000000;stroke-width:7;
stroke-linejoin:miter; stroke-linecap:butt;
"/>
<!-- Line: box -->
<rect x="4500" y="6300" width="3000" height="450" rx="105" 
style="stroke:#000000;stroke-width:7;
stroke-linejoin:miter; stroke-linecap:butt;
"/>
<!-- Line: box -->
<rect x="8100" y="3900" width="3600" height="1050" rx="105" 
style="stroke:#000000;stroke-width:7;
stroke-linejoin:miter; stroke-linecap:butt;
"/>
<!-- Line -->
<polyline points="2100,5070
2100,5550
4380,5550
" style="stroke:#000000;stroke-width:7;
stroke-linejoin:miter; stroke-linecap:butt;
"/>
<!-- Arrowhead on XXXpoint 2100 5550 - 4515 5550-->
<polygon points="4379 5580
4499 5550
4379 5520
4379 5580

" style="stroke:#000000;stroke-width:7;stroke-miterlimit:8;
fill:#000000;"/>
<!-- Arrowhead on XXXpoint 2100 5550 - 2100 4935-->
<polygon points="2040 4935
2040 4940
2041 4945
2042 4949
2043 4954
2045 4959
2047 4963
2049 4967
2052 4971
2055 4975
2058 4978
2062 4981
2066 4984
2070 4987
2074 4989
2079 4991
2083 4993
2088 4994
2093 4995
2098 4995
2102 4995
2107 4995
2112 4994
2117 4993
2121 4991
2126 4989
2130 4987
2134 4984
2138 4981
2142 4978
2145 4975
2148 4971
2151 4967
2153 4963
2155 4959
2157 4954
2158 4949
2159 4945
2160 4940
2160 4935

" style="stroke:#000000;stroke-width:7;stroke-miterlimit:8;
fill:#000000;"/>
<!-- Line -->
<polyline points="9900,5070
9900,5550
7619,5550
" style="stroke:#000000;stroke-width:7;
stroke-linejoin:miter; stroke-linecap:butt;
"/>
<!-- Arrowhead on XXXpoint 9900 5550 - 7485 5550-->
<polygon points="7621 5520
7501 5550
7621 5580
7621 5520

" style="stroke:#000000;stroke-width:7;stroke-miterlimit:8;
fill:#000000;"/>
<!-- Arrowhead on XXXpoint 9900 5550 - 9900 4935-->
<polygon points="9840 4935
9840 4940
9841 4945
9842 4949
9843 4954
9845 4959
9847 4963
9849 4967
9852 4971
9855 4975
9858 4978
9862 4981
9866 4984
9870 4987
9874 4989
9879 4991
9883 4993
9888 4994
9893 4995
9898 4995
9902 4995
9907 4995
9912 4994
9917 4993
9921 4991
9926 4989
9930 4987
9934 4984
9938 4981
9942 4978
9945 4975
9948 4971
9951 4967
9953 4963
9955 4959
9957 4954
9958 4949
9959 4945
9960 4940
9960 4935

" style="stroke:#000000;stroke-width:7;stroke-miterlimit:8;
fill:#000000;"/>
<!-- Line -->
<polyline points="6000,5970
6000,6180
" style="stroke:#000000;stroke-width:7;
stroke-linejoin:miter; stroke-linecap:butt;
"/>
<!-- Arrowhead on XXXpoint 6000 5850 - 6000 6315-->
<polygon points="5970 6179
6000 6299
6030 6179
5970 6179

" style="stroke:#000000;stroke-width:7;stroke-miterlimit:8;
fill:#000000;"/>
<!-- Arrowhead on XXXpoint 6000 6300 - 6000 5835-->
<polygon points="5940 5835
5940 5840
5941 5845
5942 5849
5943 5854
5945 5859
5947 5863
5949 5867
5952 5871
5955 5875
5958 5878
5962 5881
5966 5884
5970 5887
5974 5889
5979 5891
5983 5893
5988 5894
5993 5895
5998 5895
6002 5895
6007 5895
6012 5894
6017 5893
6021 5891
6026 5889
6030 5887
6034 5884
6038 5881
6042 5878
6045 5875
6048 5871
6051 5867
6053 5863
6055 5859
6057 5854
6058 5849
6059 5845
6060 5840
6060 5835

" style="stroke:#000000;stroke-width:7;stroke-miterlimit:8;
fill:#000000;"/>
<!-- Line: box -->
<rect x="9300" y="900" width="1800" height="1050" rx="105" 
style="stroke:#000000;stroke-width:7;
stroke-linejoin:miter; stroke-linecap:butt;
"/>
<!-- Line: box -->
<rect x="900" y="900" width="1800" height="1050" rx="105" 
style="stroke:#000000;stroke-width:7;
stroke-linejoin:miter; stroke-linecap:butt;
"/>
<!-- Line -->
<polyline points="7620,3300
9900,3300
9900,3780
" style="stroke:#000000;stroke-width:7;
stroke-linejoin:miter; stroke-linecap:butt;
"/>
<!-- Arrowhead on XXXpoint 9900 3300 - 9900 3915-->
<polygon points="9870 3779
9900 3899
9930 3779
9870 3779

" style="stroke:#000000;stroke-width:7;stroke-miterlimit:8;
fill:#000000;"/>
<!-- Arrowhead on XXXpoint 9900 3300 - 7485 3300-->
<polygon points="7485 3360
7490 3360
7495 3359
7499 3358
7504 3357
7509 3355
7513 3353
7517 3351
7521 3348
7525 3345
7528 3342
7531 3338
7534 3334
7537 3330
7539 3326
7541 3321
7543 3317
7544 3312
7545 3307
7545 3302
7545 3298
7545 3293
7544 3288
7543 3283
7541 3279
7539 3274
7537 3270
7534 3266
7531 3262
7528 3258
7525 3255
7521 3252
7517 3249
7513 3247
7509 3245
7504 3243
7499 3242
7495 3241
7490 3240
7485 3240

" style="stroke:#000000;stroke-width:7;stroke-miterlimit:8;
fill:#000000;"/>
<!-- Line -->
<polyline points="6000,3570
6000,3780
" style="stroke:#000000;stroke-width:7;
stroke-linejoin:miter; stroke-linecap:butt;
"/>
<!-- Arrowhead on XXXpoint 6000 3450 - 6000 3915-->
<polygon points="5970 3779
6000 3899
6030 3779
5970 3779

" style="stroke:#000000;stroke-width:7;stroke-miterlimit:8;
fill:#000000;"/>
<!-- Arrowhead on XXXpoint 6000 3900 - 6000 3435-->
<polygon points="5940 3435
5940 3440
5941 3445
5942 3449
5943 3454
5945 3459
5947 3463
5949 3467
5952 3471
5955 3475
5958 3478
5962 3481
5966 3484
5970 3487
5974 3489
5979 3491
5983 3493
5988 3494
5993 3495
5998 3495
6002 3495
6007 3495
6012 3494
6017 3493
6021 3491
6026 3489
6030 3487
6034 3484
6038 3481
6042 3478
6045 3475
6048 3471
6051 3467
6053 3463
6055 3459
6057 3454
6058 3449
6059 3445
6060 3440
6060 3435

" style="stroke:#000000;stroke-width:7;stroke-miterlimit:8;
fill:#000000;"/>
<!-- Line -->
<polyline points="4381,3300
2100,3300
2100,3780
" style="stroke:#000000;stroke-width:7;
stroke-linejoin:miter; stroke-linecap:butt;
"/>
<!-- Arrowhead on XXXpoint 2100 3300 - 2100 3915-->
<polygon points="2070 3779
2100 3899
2130 3779
2070 3779

" style="stroke:#000000;stroke-width:7;stroke-miterlimit:8;
fill:#000000;"/>
<!-- Arrowhead on XXXpoint 2100 3300 - 4515 3300-->
<polygon points="4515 3240
4510 3240
4505 3241
4501 3242
4496 3243
4491 3245
4487 3247
4483 3249
4479 3252
4475 3255
4472 3258
4469 3262
4466 3266
4463 3270
4461 3274
4459 3279
4457 3283
4456 3288
4455 3293
4455 3298
4455 3302
4455 3307
4456 3312
4457 3317
4459 3321
4461 3326
4463 3330
4466 3334
4469 3338
4472 3342
4475 3345
4479 3348
4483 3351
4487 3353
4491 3355
4496 3357
4501 3358
4505 3359
4510 3360
4515 3360

" style="stroke:#000000;stroke-width:7;stroke-miterlimit:8;
fill:#000000;"/>
<!-- Line -->
<polyline points="7320,1500
9180,1500
" style="stroke:#000000;stroke-width:7;
stroke-linejoin:miter; stroke-linecap:butt;
"/>
<!-- Arrowhead on XXXpoint 7200 1500 - 9315 1500-->
<polygon points="9315 1440
9310 1440
9305 1441
9301 1442
9296 1443
9291 1445
9287 1447
9283 1449
9279 1452
9275 1455
9272 1458
9269 1462
9266 1466
9263 1470
9261 1474
9259 1479
9257 1483
9256 1488
9255 1493
9255 1498
9255 1502
9255 1507
9256 1512
9257 1517
9259 1521
9261 1526
9263 1530
9266 1534
9269 1538
9272 1542
9275 1545
9279 1548
9283 1551
9287 1553
9291 1555
9296 1557
9301 1558
9305 1559
9310 1560
9315 1560

" style="stroke:#000000;stroke-width:7;stroke-miterlimit:8;
fill:#000000;"/>
<!-- Arrowhead on XXXpoint 9300 1500 - 7185 1500-->
<polygon points="7321 1470
7201 1500
7321 1530
7321 1470

" style="stroke:#000000;stroke-width:7;stroke-miterlimit:8;
fill:#000000;"/>
<!-- Text -->
<text xml:space="preserve" x="6150" y="2250" fill="#000000"  font-family="Helvetica" font-style="normal" font-weight="normal" font-size="144" text-anchor="start">partitioning</text>
<!-- Text -->
<text xml:space="preserve" x="3000" y="1800" fill="#000000"  font-family="Helvetica" font-style="normal" font-weight="normal" font-size="144" text-anchor="start">coarse-graining</text>
<!-- Text -->
<text xml:space="preserve" x="6150" y="3750" fill="#000000"  font-family="Helvetica" font-style="normal" font-weight="normal" font-size="144" text-anchor="start">DFT</text>
<!-- Text -->
<text xml:space="preserve" x="7800" y="3150" fill="#000000"  font-family="Helvetica" font-style="normal" font-weight="normal" font-size="144" text-anchor="start">polarizable force-fields</text>
<!-- Text -->
<text xml:space="preserve" x="6150" y="5250" fill="#000000"  font-family="Helvetica" font-style="normal" font-weight="normal" font-size="144" text-anchor="start">charge transfer theory</text>
<!-- Text -->
<text xml:space="preserve" x="6150" y="6150" fill="#000000"  font-family="Helvetica" font-style="normal" font-weight="normal" font-size="144" text-anchor="start">kinetic Monte Carlo</text>
<!-- Text -->
<text xml:space="preserve" x="4500" y="6150" fill="#000000"  font-family="Helvetica" font-style="normal" font-weight="normal" font-size="144" text-anchor="start">master equation</text>
<!-- Text -->
<text xml:space="preserve" x="7800" y="1350" fill="#000000"  font-family="Helvetica" font-style="normal" font-weight="normal" font-size="144" text-anchor="start">validation</text>
<!-- Text -->
<text xml:space="preserve" x="2850" y="1350" fill="#000000"  font-family="Helvetica" font-style="normal" font-weight="normal" font-size="144" text-anchor="start">molecular dynamics</text>
<!-- Text -->
<text xml:space="preserve" x="9600" y="1200" fill="#000000"  font-family="Helvetica" font-style="normal" font-weight="bold" font-size="168" text-anchor="start">experiment</text>
<!-- Text -->
<text xml:space="preserve" x="9900" y="1500" fill="#000000"  font-family="Helvetica" font-style="normal" font-weight="normal" font-size="144" text-anchor="start">WAXS</text>
<!-- Text -->
<text xml:space="preserve" x="9975" y="1800" fill="#000000"  font-family="Helvetica" font-style="normal" font-weight="normal" font-size="144" text-anchor="start">NMR</text>
<!-- Text -->
<text xml:space="preserve" x="1200" y="1500" fill="#000000"  font-family="Helvetica" font-style="normal" font-weight="normal" font-size="144" text-anchor="start">partial charges</text>
<!-- Text -->
<text xml:space="preserve" x="1275" y="1200" fill="#000000"  font-family="Helvetica" font-style="normal" font-weight="bold" font-size="168" text-anchor="start">force-field</text>
<!-- Text -->
<text xml:space="preserve" x="1350" y="1800" fill="#000000"  font-family="Helvetica" font-style="normal" font-weight="normal" font-size="144" text-anchor="start">PES scans</text>
<!-- Text -->
<text xml:space="preserve" x="9900" y="4200" fill="#000000"  font-family="Helvetica" font-style="normal" font-weight="bold" font-size="168" text-anchor="middle">electrostatic and polarization</text>
<!-- Text -->
<text xml:space="preserve" x="9900" y="4500" fill="#000000"  font-family="Helvetica" font-style="normal" font-weight="bold" font-size="168" text-anchor="middle">site energies</text>
<!-- Text -->
<text xml:space="preserve" x="9900" y="4800" fill="#000000"  font-family="Helvetica" font-style="normal" font-weight="bold" font-size="168" text-anchor="middle">outer-sphere reorganization</text>
<!-- Text -->
<text xml:space="preserve" x="6000" y="4200" fill="#000000"  font-family="Helvetica" font-style="normal" font-weight="bold" font-size="168" text-anchor="middle">internal </text>
<!-- Text -->
<text xml:space="preserve" x="6000" y="4500" fill="#000000"  font-family="Helvetica" font-style="normal" font-weight="bold" font-size="168" text-anchor="middle">site and reorganization</text>
<!-- Text -->
<text xml:space="preserve" x="6000" y="4800" fill="#000000"  font-family="Helvetica" font-style="normal" font-weight="bold" font-size="168" text-anchor="middle">energies</text>
<!-- Text -->
<text xml:space="preserve" x="2100" y="4500" fill="#000000"  font-family="Helvetica" font-style="normal" font-weight="bold" font-size="168" text-anchor="middle">transfer integrals</text>
<!-- Text -->
<text xml:space="preserve" x="6000" y="5700" fill="#000000"  font-family="Helvetica" font-style="normal" font-weight="bold" font-size="168" text-anchor="middle">rates and directed graph</text>
<!-- Text -->
<text xml:space="preserve" x="6000" y="6600" fill="#000000"  font-family="Helvetica" font-style="normal" font-weight="bold" font-size="168" text-anchor="middle">charge dynamics</text>
<!-- Text -->
<!--  0  -->
<text xml:space="preserve" x="6000" y="2700" fill="#000000"  font-family="Helvetica" font-style="normal" font-weight="bold" font-size="168" text-anchor="middle">conjugated segments</text>
<!-- Text -->
<text xml:space="preserve" x="6000" y="3000" fill="#000000"  font-family="Helvetica" font-style="normal" font-weight="bold" font-size="168" text-anchor="middle">rigid fragments</text>
<!-- Text -->
<text xml:space="preserve" x="6000" y="3300" fill="#000000"  font-family="Helvetica" font-style="normal" font-weight="bold" font-size="168" text-anchor="middle">neighbor list</text>
<!-- Text -->
<text xml:space="preserve" x="6000" y="1500" fill="#000000"  font-family="Helvetica" font-style="normal" font-weight="bold" font-size="168" text-anchor="middle">morphology</text>
<!-- Text -->
<text xml:space="preserve" x="2250" y="3150" fill="#000000"  font-family="Helvetica" font-style="normal" font-weight="normal" font-size="144" text-anchor="start">ZINDO or DFT</text>
</g>
</svg>
